<?xml version="1.0" encoding="UTF-8"?>
<svg xmlns="http://www.w3.org/2000/svg" width="980" height="260" viewBox="0 0 980 260" role="img" aria-label="JZZ1 logo">
  <defs>
    <linearGradient id="g" x1="0" y1="0" x2="1" y2="1">
      <stop offset="0" stop-color="#F2C14E"/>
      <stop offset="1" stop-color="#C58F2A"/>
    </linearGradient>
    <filter id="s" x="-20%" y="-20%" width="140%" height="140%">
      <feDropShadow dx="0" dy="6" stdDeviation="8" flood-color="#000" flood-opacity="0.20"/>
    </filter>
  </defs>

  <!-- Mark -->
  <g transform="translate(40,40)" filter="url(#s)">
    <rect x="0" y="0" width="180" height="180" rx="28" fill="#111111"/>
    <path d="M34 54h112v24H90c0 0-2 16-14 28-12 12-28 14-28 14v26c0 7 6 12 12 12h14c7 0 12-5 12-12v-6h26v10c0 22-18 40-40 40H60c-22 0-40-18-40-40v-52c28-3 45-20 50-44H34V54z" fill="url(#g)"/>
    <path d="M96 98h66v22l-46 46h46v22H92v-22l46-46H96V98z" fill="url(#g)"/>
    <path d="M34 98h56v22H60l30 30-16 16-40-40V98z" fill="url(#g)" opacity="0.95"/>
  </g>

  <!-- Wordmark -->
  <g transform="translate(260,78)">
    <text x="0" y="74" font-size="92" font-family="Arial, Helvetica, sans-serif" font-weight="800" letter-spacing="2" fill="#111111">JZZ1</text>
    <text x="2" y="134" font-size="26" font-family="Arial, Helvetica, sans-serif" font-weight="600" letter-spacing="1.6" fill="#555555">Jinan Jingzao</text>
    <rect x="2" y="156" width="320" height="6" rx="3" fill="url(#g)"/>
  </g>
</svg>
